<svg width="1010" height="1010" viewBox="0 0 1010 1010" fill="none" xmlns="http://www.w3.org/2000/svg">
<path fill-rule="evenodd" clip-rule="evenodd" d="M1009 505C1009 226.648 783.352 1 505 1C226.648 1 1 226.648 1 505C1 783.352 226.648 1009 505 1009C783.352 1009 1009 783.352 1009 505ZM1010 505C1010 226.096 783.904 0 505 0C226.096 0 0 226.096 0 505C0 783.904 226.096 1010 505 1010C783.904 1010 1010 783.904 1010 505ZM505 124.674C715.048 124.674 885.326 294.952 885.326 505C885.326 715.049 715.048 885.327 505 885.327C294.951 885.327 124.673 715.049 124.673 505C124.673 294.952 294.951 124.674 505 124.674ZM505 123.674C715.601 123.674 886.326 294.399 886.326 505C886.326 715.601 715.601 886.327 505 886.327C294.399 886.327 123.673 715.601 123.673 505C123.673 294.399 294.399 123.674 505 123.674ZM761.653 505C761.653 363.254 646.746 248.347 505 248.347C363.254 248.347 248.347 363.254 248.347 505C248.347 646.746 363.254 761.653 505 761.653C646.746 761.653 761.653 646.746 761.653 505ZM762.653 505C762.653 362.702 647.298 247.347 505 247.347C362.702 247.347 247.347 362.702 247.347 505C247.347 647.298 362.702 762.653 505 762.653C647.298 762.653 762.653 647.298 762.653 505ZM637.98 505C637.98 431.557 578.443 372.02 505 372.02C431.557 372.02 372.02 431.557 372.02 505C372.02 578.443 431.557 637.979 505 637.979C578.443 637.979 637.98 578.443 637.98 505ZM638.98 505C638.98 431.005 578.995 371.02 505 371.02C431.005 371.02 371.02 431.005 371.02 505C371.02 578.995 431.005 638.979 505 638.979C578.995 638.979 638.98 578.995 638.98 505Z" fill="url(#paint0_radial_793_20389)"/>
<defs>
<radialGradient id="paint0_radial_793_20389" cx="0" cy="0" r="1" gradientUnits="userSpaceOnUse" gradientTransform="translate(505 505) rotate(90) scale(694.5)">
<stop stop-color="#9353FF"/>
<stop offset="1" stop-color="#161212" stop-opacity="0"/>
</radialGradient>
</defs>
</svg>
